<svg width="171" height="37" viewBox="0 0 171 37" fill="none" xmlns="http://www.w3.org/2000/svg">
<path d="M12.1891 27.6685V17.469C12.1891 16.208 11.8397 15.2374 11.1424 14.5602C10.4436 13.8831 9.46616 13.5445 8.20715 13.5445C6.94814 13.5445 5.89552 13.8891 5.18494 14.5783C4.47435 15.2675 4.12053 16.196 4.12053 17.3652V27.6685H0V1.38281H4.12053V11.8622C5.35742 10.4838 7.06166 9.79458 9.23617 9.79458C10.2667 9.79458 11.2161 9.9586 12.0859 10.2851C12.9557 10.6132 13.7046 11.0857 14.3341 11.7042C14.9636 12.3241 15.4501 13.0705 15.7936 13.9478C16.1371 14.8236 16.3081 15.8107 16.3081 16.9092V27.6685H12.1876H12.1891Z" fill="white"/>
<path d="M22.5253 10.1567V20.391C22.5253 21.4655 22.8747 22.3127 23.5735 22.9327C24.2708 23.5526 25.2379 23.8611 26.4748 23.8611C27.6188 23.8611 28.5638 23.5933 29.3069 23.0545C30.0499 22.5173 30.4804 21.7815 30.5939 20.847V10.1567H34.7144V27.6804H31.3502L30.6985 25.8234C29.5309 27.2951 27.8031 28.031 25.5136 28.031C23.2241 28.031 21.4963 27.4125 20.2609 26.174C19.0254 24.9356 18.4062 23.1719 18.4062 20.8816V10.1567H22.5268H22.5253Z" fill="white"/>
<path d="M61.4448 27.6496V17.4517C61.4448 16.1909 61.0734 15.2204 60.3335 14.5434C59.5921 13.8663 58.5957 13.5278 57.3457 13.5278C56.0256 13.5278 55.0187 13.8663 54.3236 14.5434C53.6285 15.2204 53.2809 16.1547 53.2809 17.3464V27.6481H49.1117V17.4502C49.1117 16.1894 48.7463 15.2189 48.0169 14.5419C47.2874 13.8648 46.285 13.5263 45.0127 13.5263C43.7403 13.5263 42.6901 13.8648 42.007 14.5419C41.3238 15.2189 40.9822 16.1532 40.9822 17.3449V27.6466H36.813V10.126H40.1827L40.9464 11.6681C42.1278 10.4073 43.7955 9.77539 45.9494 9.77539C47.3859 9.77539 48.6299 10.0267 49.6845 10.5292C50.7376 11.0317 51.5655 11.7614 52.1681 12.7198C52.7932 11.7614 53.6106 11.0317 54.6175 10.5292C55.6258 10.0267 56.8236 9.77539 58.2139 9.77539C59.3251 9.77539 60.3335 9.94541 61.236 10.2839C62.1384 10.6225 62.9141 11.1024 63.5629 11.7208C64.2118 12.3407 64.7145 13.0869 65.074 13.9641C65.432 14.8398 65.6125 15.8162 65.6125 16.8905V27.6481H61.4433L61.4448 27.6496Z" fill="white"/>
<path d="M84.9866 10.126V27.6495H80.8789V25.6165C80.2161 26.387 79.4416 26.9783 78.551 27.3861C77.6619 27.7939 76.6684 28.0001 75.5735 28.0001C74.4095 28.0001 73.3205 27.7608 72.305 27.2823C71.2894 26.8038 70.4106 26.1492 69.6699 25.32C68.9277 24.4909 68.3457 23.5158 67.9239 22.3932C67.5022 21.2721 67.2905 20.0577 67.2905 18.7486C67.2905 17.4394 67.4963 16.2716 67.9063 15.1731C68.3163 14.0746 68.8866 13.1296 69.6185 12.3336C70.3489 11.539 71.216 10.9145 72.2197 10.4586C73.2235 10.0026 74.3184 9.77539 75.5059 9.77539C76.6243 9.77539 77.6339 9.98004 78.5348 10.3894C79.4357 10.7987 80.2176 11.3765 80.8789 12.1244V10.126H84.9866ZM80.8789 18.8524C80.8789 18.1511 80.7599 17.5026 80.5189 16.9067C80.2793 16.3108 79.9428 15.7976 79.5092 15.3642C79.0757 14.9324 78.573 14.5878 78.0028 14.3304C77.4326 14.0731 76.8051 13.9452 76.1202 13.9452C75.4353 13.9452 74.8372 14.0746 74.2552 14.3304C73.6732 14.5878 73.1706 14.9324 72.7488 15.3642C72.327 15.7961 71.9964 16.3108 71.7568 16.9067C71.5172 17.5026 71.3967 18.1511 71.3967 18.8524C71.3967 19.5536 71.5172 20.2082 71.7568 20.8147C71.9964 21.4226 72.327 21.9478 72.7488 22.3917C73.1706 22.8356 73.6732 23.1862 74.2552 23.4435C74.8372 23.7009 75.4588 23.8288 76.1202 23.8288C76.7815 23.8288 77.4311 23.7009 78.0028 23.4435C78.573 23.1862 79.0757 22.8356 79.5092 22.3917C79.9428 21.9478 80.2793 21.4226 80.5189 20.8147C80.7584 20.2067 80.8789 19.5536 80.8789 18.8524Z" fill="white"/>
<path d="M99.0147 27.6496V17.45C99.0147 16.1889 98.6554 15.2183 97.9398 14.5412C97.2227 13.864 96.2588 13.5254 95.0497 13.5254C93.7727 13.5254 92.7988 13.864 92.1264 14.5412C91.454 15.2183 91.1178 16.1528 91.1178 17.3446V27.6481H87.085V10.1245H90.3776L91.0832 11.6669C91.6647 11.0364 92.3371 10.5624 93.0989 10.2479C93.8607 9.93189 94.7669 9.77539 95.8202 9.77539C96.8735 9.77539 97.8748 9.93942 98.7608 10.266C99.6453 10.594 100.407 11.0665 101.046 11.685C101.685 12.305 102.178 13.0514 102.525 13.9287C102.872 14.8045 103.046 15.7917 103.046 16.8902V27.6496H99.0133H99.0147Z" fill="white"/>
<path d="M123.231 10.1229H126.61V26.3765C126.61 29.4889 125.739 31.8811 123.997 33.553C122.255 35.225 119.793 36.061 116.612 36.061C115.15 36.061 113.78 35.8769 112.503 35.5072C111.226 35.1389 109.972 34.5509 108.742 33.7431L110.448 30.4229C112.468 31.8528 114.465 32.5671 116.439 32.5671C117.321 32.5671 118.129 32.4349 118.86 32.1691C119.591 31.9033 120.224 31.5232 120.758 31.0272C121.292 30.5313 121.705 29.921 121.995 29.1949C122.285 28.4688 122.43 27.6565 122.43 26.7567V25.0268C121.709 25.8806 120.851 26.5488 119.853 27.0329C118.854 27.5169 117.75 27.759 116.544 27.759C115.337 27.759 114.262 27.5288 113.252 27.067C112.241 26.6067 111.365 25.9771 110.623 25.1827C109.88 24.3868 109.293 23.4424 108.864 22.3465C108.435 21.2522 108.22 20.0806 108.22 18.8362C108.22 17.5919 108.44 16.3802 108.882 15.274C109.323 14.1677 109.922 13.2114 110.675 12.4037C111.429 11.5974 112.323 10.9574 113.357 10.4837C114.39 10.0115 115.498 9.77539 116.683 9.77539C117.867 9.77539 118.959 10.0115 119.956 10.4837C120.954 10.9559 121.802 11.6196 122.499 12.472L123.23 10.1199L123.231 10.1229ZM122.431 18.7338C122.431 18.0418 122.303 17.4018 122.049 16.8138C121.793 16.2258 121.444 15.7194 121.003 15.2918C120.562 14.8656 120.039 14.5256 119.436 14.2717C118.832 14.0177 118.181 13.8915 117.486 13.8915C116.79 13.8915 116.132 14.0192 115.518 14.2717C114.902 14.5256 114.374 14.8656 113.932 15.2918C113.491 15.7179 113.143 16.2258 112.887 16.8138C112.631 17.4018 112.504 18.0418 112.504 18.7338C112.504 19.4257 112.631 20.0717 112.887 20.6701C113.143 21.27 113.49 21.7882 113.932 22.2263C114.374 22.6643 114.902 23.0103 115.518 23.2642C116.132 23.5181 116.789 23.6443 117.486 23.6443C118.183 23.6443 118.832 23.5181 119.436 23.2642C120.039 23.0103 120.562 22.6643 121.003 22.2263C121.444 21.7882 121.793 21.27 122.049 20.6701C122.304 20.0702 122.431 19.4257 122.431 18.7338Z" fill="white"/>
<path d="M133.219 27.6685H128.708V1.38281H133.219V27.6685Z" fill="white"/>
<path d="M139.439 10.1567V20.391C139.439 21.4655 139.788 22.3127 140.485 22.9327C141.184 23.5526 142.151 23.8611 143.386 23.8611C144.53 23.8611 145.475 23.5933 146.218 23.0545C146.961 22.5173 147.391 21.7815 147.505 20.847V10.1567H151.625V27.6804H148.261L147.608 25.8234C146.441 27.2951 144.713 28.031 142.424 28.031C140.134 28.031 138.407 27.4125 137.171 26.174C135.935 24.9356 135.317 23.1719 135.317 20.8816V10.1567H139.437H139.439Z" fill="white"/>
<path d="M157.661 19.659C157.891 20.92 158.485 21.9312 159.44 22.6911C160.396 23.4511 161.612 23.8303 163.087 23.8303C165 23.8303 166.577 23.1411 167.822 21.7627L170.207 25.0567C169.032 26.0619 167.874 26.8038 166.733 27.2823C165.592 27.7608 164.33 28.0001 162.949 28.0001C161.567 28.0001 160.252 27.7729 159.077 27.3169C157.901 26.861 156.888 26.2305 156.034 25.4239C155.181 24.6173 154.513 23.6602 154.029 22.5497C153.546 21.4407 153.304 20.2187 153.304 18.887C153.304 17.626 153.54 16.4402 154.012 15.3296C154.484 14.2206 155.129 13.256 155.947 12.4389C156.765 11.6218 157.72 10.9732 158.816 10.4932C159.909 10.0147 161.068 9.77539 162.29 9.77539C163.511 9.77539 164.583 9.9981 165.642 10.4405C166.702 10.8844 167.629 11.4984 168.425 12.2809C169.22 13.0634 169.848 14.0099 170.308 15.1205C170.768 16.231 171 17.4514 171 18.7832V19.659H157.658H157.661ZM166.509 16.5741C166.117 15.593 165.57 14.8391 164.868 14.3139C164.164 13.7887 163.33 13.5254 162.361 13.5254C161.392 13.5254 160.454 13.8053 159.682 14.3666C158.911 14.9278 158.339 15.6637 157.971 16.5741H166.509Z" fill="white"/>
<path d="M100.279 5.70159C103.992 4.69509 104.763 3.93671 105.79 0.290599C105.823 0.174249 105.93 0.0943453 106.051 0.0943453C106.173 0.0943453 106.281 0.174249 106.313 0.290599C107.338 3.93671 108.11 4.69369 111.824 5.70159C111.943 5.73383 112.022 5.83897 112.022 5.95812C112.022 6.07728 111.941 6.18382 111.824 6.21466C108.11 7.22116 107.339 7.97954 106.313 11.6256C106.28 11.742 106.173 11.8219 106.051 11.8219C105.93 11.8219 105.821 11.742 105.79 11.6256C104.765 7.97954 103.992 7.22256 100.279 6.21466C100.16 6.18241 100.08 6.07728 100.08 5.95812C100.08 5.83897 100.161 5.73243 100.279 5.70159Z" fill="#61D8FE"/>
<path d="M109.541 0C109.654 1.33906e-06 109.766 0.0221245 109.87 0.0650735C109.974 0.108024 110.069 0.171007 110.149 0.250364L110.314 0.414928L110.479 0.251521C110.489 0.241181 110.5 0.231121 110.511 0.221346C110.668 0.0793184 110.874 9.64036e-05 111.087 9.64052e-05C111.315 0.000103378 111.534 0.0901479 111.695 0.250364C111.856 0.410584 111.947 0.627859 111.947 0.85444C111.947 1.69038 110.964 2.48886 110.314 2.83142L110.314 2.83133L110.313 2.83258C109.664 2.49002 108.681 1.69154 108.681 0.855596C108.681 0.629024 108.771 0.411733 108.932 0.251521C108.935 0.248745 108.938 0.246061 108.941 0.243327C109.019 0.167304 109.111 0.106737 109.212 0.0650735C109.317 0.0221267 109.428 0 109.541 0Z" fill="#61D8FE"/>
</svg>
