<svg width="184" height="183" viewBox="0 0 184 183" fill="none" xmlns="http://www.w3.org/2000/svg">
<path d="M52.4304 14.0357C51.2386 11.6745 48.3507 10.7158 46.0551 12.0295C28.0105 22.3555 13.974 38.5506 6.337 57.9896C-1.88512 78.918 -2.1137 102.141 5.69488 123.227C13.5035 144.314 28.8025 161.787 48.6725 172.312C68.5425 182.837 91.5923 185.678 113.423 180.293C135.255 174.907 154.338 161.672 167.033 143.113C179.728 124.554 185.146 101.97 182.252 79.6717C179.357 57.3732 168.354 36.9208 151.342 22.2176C135.54 8.56078 115.582 0.75197 94.8054 0.00298953C92.1622 -0.0922924 90.0516 2.09956 90.0946 4.74414C90.1377 7.38872 92.3185 9.48304 94.9611 9.59449C113.383 10.3715 131.058 17.3467 145.079 29.4643C160.31 42.6285 170.162 60.94 172.753 80.9046C175.344 100.869 170.494 121.089 159.128 137.705C147.762 154.322 130.675 166.172 111.129 170.993C91.5833 175.815 70.9462 173.272 53.156 163.848C35.3658 154.424 21.6682 138.78 14.6769 119.901C7.68567 101.022 7.89032 80.2298 15.2518 61.492C22.028 44.244 34.4315 29.8484 50.3782 20.5929C52.6657 19.2652 53.6223 16.3969 52.4304 14.0357Z" fill="#61D8FE"/>
</svg>
