<svg width="93" height="167" viewBox="0 0 93 167" fill="none" xmlns="http://www.w3.org/2000/svg">
<mask id="path-1-inside-1_454_341" fill="white">
<path d="M47.6925 164.592C49.1129 166.823 52.0816 167.49 54.2355 165.955C69.0838 155.372 80.4643 140.569 86.8616 123.417C93.818 104.765 94.5027 84.3546 88.8119 65.2792C83.1211 46.2038 71.3652 29.5043 55.327 17.7132C40.5777 6.86966 22.9465 0.72116 4.72694 0.0036072C2.08406 -0.10047 -0.0337707 2.08436 0.000513663 4.72907C0.034798 7.37377 2.20835 9.47532 4.85054 9.59557C20.9852 10.3299 36.5832 15.8211 49.6535 25.4302C64.013 35.9872 74.5384 50.9387 79.6335 68.0174C84.7286 85.0962 84.1156 103.371 77.8874 120.069C72.2183 135.269 62.1785 148.409 49.0834 157.863C46.939 159.412 46.2722 162.361 47.6925 164.592Z"/>
</mask>
<path d="M47.6925 164.592C49.1129 166.823 52.0816 167.49 54.2355 165.955C69.0838 155.372 80.4643 140.569 86.8616 123.417C93.818 104.765 94.5027 84.3546 88.8119 65.2792C83.1211 46.2038 71.3652 29.5043 55.327 17.7132C40.5777 6.86966 22.9465 0.72116 4.72694 0.0036072C2.08406 -0.10047 -0.0337707 2.08436 0.000513663 4.72907C0.034798 7.37377 2.20835 9.47532 4.85054 9.59557C20.9852 10.3299 36.5832 15.8211 49.6535 25.4302C64.013 35.9872 74.5384 50.9387 79.6335 68.0174C84.7286 85.0962 84.1156 103.371 77.8874 120.069C72.2183 135.269 62.1785 148.409 49.0834 157.863C46.939 159.412 46.2722 162.361 47.6925 164.592Z" fill="#61D8FE" stroke="white" stroke-opacity="0.08" stroke-width="39.721" mask="url(#path-1-inside-1_454_341)"/>
</svg>
