<svg width="213" height="45" viewBox="0 0 213 45" fill="none" xmlns="http://www.w3.org/2000/svg">
<path d="M15.1763 34.1056V21.5331C15.1763 19.9787 14.7413 18.7823 13.8731 17.9476C13.003 17.1129 11.786 16.6955 10.2185 16.6955C8.65093 16.6955 7.34035 17.1203 6.45562 17.9699C5.57088 18.8194 5.13035 19.9639 5.13035 21.4051V34.1056H0V1.70428H5.13035V14.6218C6.67038 12.9227 8.79227 12.0732 11.4997 12.0732C12.7827 12.0732 13.9648 12.2753 15.0478 12.6778C16.1308 13.0822 17.0632 13.6647 17.847 14.427C18.6308 15.1912 19.2365 16.1113 19.6642 17.1927C20.0919 18.2722 20.3048 19.489 20.3048 20.8431V34.1056H15.1745H15.1763Z" fill="white"/>
<path d="M28.0455 12.5197V25.135C28.0455 26.4595 28.4805 27.5038 29.3506 28.268C30.2188 29.0323 31.4229 29.4125 32.9629 29.4125C34.3873 29.4125 35.5639 29.0823 36.489 28.4183C37.4141 27.7561 37.9501 26.849 38.0915 25.6971V12.5197H43.2218V34.1203H39.0331L38.2218 31.8314C36.768 33.6455 34.6168 34.5525 31.7662 34.5525C28.9156 34.5525 26.7643 33.7902 25.2261 32.2636C23.6879 30.7369 22.917 28.563 22.917 25.7398V12.5197H28.0473H28.0455Z" fill="white"/>
<path d="M76.5028 34.0824V21.5118C76.5028 19.9576 76.0404 18.7614 75.1192 17.9268C74.1962 17.0922 72.9555 16.6749 71.3992 16.6749C69.7555 16.6749 68.5019 17.0922 67.6364 17.9268C66.771 18.7614 66.3382 19.9131 66.3382 21.3819V34.0805H61.1473V21.5099C61.1473 19.9557 60.6923 18.7595 59.7841 17.9249C58.8759 17.0904 57.6279 16.6731 56.0436 16.6731C54.4594 16.6731 53.1519 17.0904 52.3013 17.9249C51.4507 18.7595 51.0254 19.9112 51.0254 21.3801V34.0787H45.8345V12.4816H50.0299L50.9808 14.3826C52.4518 12.8284 54.5281 12.0495 57.21 12.0495C58.9985 12.0495 60.5474 12.3592 61.8605 12.9787C63.1717 13.5981 64.2024 14.4976 64.9528 15.679C65.7309 14.4976 66.7487 13.5981 68.0023 12.9787C69.2578 12.3592 70.7492 12.0495 72.4801 12.0495C73.8637 12.0495 75.1192 12.2591 76.2428 12.6764C77.3664 13.0937 78.3322 13.6853 79.1401 14.4475C79.948 15.2116 80.5739 16.1315 81.0215 17.2128C81.4672 18.2922 81.6919 19.4958 81.6919 20.82V34.0805H76.501L76.5028 34.0824Z" fill="white"/>
<path d="M105.815 12.4817V34.0822H100.7V31.5762C99.875 32.5259 98.9107 33.2549 97.8018 33.7576C96.6948 34.2603 95.4578 34.5144 94.0946 34.5144C92.6454 34.5144 91.2895 34.2195 90.0251 33.6296C88.7607 33.0397 87.6665 32.2329 86.7442 31.2108C85.8202 30.1887 85.0956 28.9868 84.5704 27.603C84.0452 26.2211 83.7817 24.7242 83.7817 23.1104C83.7817 21.4966 84.0379 20.0572 84.5484 18.7031C85.059 17.349 85.7689 16.1841 86.6802 15.2029C87.5896 14.2235 88.6692 13.4537 89.919 12.8916C91.1687 12.3296 92.5319 12.0495 94.0104 12.0495C95.4029 12.0495 96.66 12.3018 97.7817 12.8063C98.9034 13.3108 99.8769 14.0231 100.7 14.945V12.4817H105.815ZM100.7 23.2384C100.7 22.374 100.552 21.5745 100.252 20.84C99.9537 20.1054 99.5347 19.4729 98.9949 18.9387C98.4551 18.4063 97.8293 17.9815 97.1193 17.6643C96.4093 17.3471 95.628 17.1895 94.7753 17.1895C93.9226 17.1895 93.1779 17.349 92.4533 17.6643C91.7287 17.9815 91.1029 18.4063 90.5777 18.9387C90.0525 19.471 89.6408 20.1054 89.3426 20.84C89.0443 21.5745 88.8943 22.374 88.8943 23.2384C88.8943 24.1028 89.0443 24.9096 89.3426 25.6572C89.6408 26.4066 90.0525 27.0539 90.5777 27.6011C91.1029 28.1483 91.7287 28.5805 92.4533 28.8977C93.1779 29.2149 93.9519 29.3726 94.7753 29.3726C95.5987 29.3726 96.4075 29.2149 97.1193 28.8977C97.8293 28.5805 98.4551 28.1483 98.9949 27.6011C99.5347 27.0539 99.9537 26.4066 100.252 25.6572C100.55 24.9078 100.7 24.1028 100.7 23.2384Z" fill="white"/>
<path d="M123.281 34.0824V21.5097C123.281 19.9552 122.833 18.7588 121.942 17.9241C121.049 17.0894 119.849 16.672 118.344 16.672C116.754 16.672 115.541 17.0894 114.704 17.9241C113.867 18.7588 113.448 19.9107 113.448 21.3798V34.0805H108.427V12.4798H112.527L113.405 14.3811C114.129 13.6039 114.966 13.0196 115.915 12.6319C116.864 12.2424 117.992 12.0495 119.303 12.0495C120.615 12.0495 121.861 12.2517 122.964 12.6542C124.066 13.0586 125.014 13.641 125.81 14.4034C126.606 15.1676 127.219 16.0877 127.652 17.1691C128.083 18.2487 128.3 19.4655 128.3 20.8196V34.0824H123.279H123.281Z" fill="white"/>
<path d="M153.432 12.4777H157.639V32.513C157.639 36.3494 156.555 39.2982 154.386 41.3592C152.216 43.4202 149.152 44.4507 145.191 44.4507C143.37 44.4507 141.665 44.2237 140.074 43.768C138.484 43.314 136.924 42.5892 135.392 41.5935L137.516 37.5008C140.032 39.2634 142.517 40.1438 144.975 40.1438C146.074 40.1438 147.079 39.9809 147.99 39.6533C148.9 39.3256 149.688 38.8571 150.353 38.2457C151.017 37.6344 151.531 36.8821 151.893 35.987C152.254 35.092 152.434 34.0908 152.434 32.9816V30.8492C151.537 31.9016 150.468 32.7253 149.226 33.322C147.982 33.9187 146.608 34.2171 145.106 34.2171C143.603 34.2171 142.264 33.9334 141.007 33.3641C139.749 32.7967 138.657 32.0206 137.734 31.0414C136.809 30.0603 136.079 28.8962 135.544 27.5453C135.01 26.1964 134.742 24.7522 134.742 23.2183C134.742 21.6845 135.015 20.1909 135.567 18.8273C136.116 17.4636 136.861 16.2849 137.799 15.2891C138.738 14.2952 139.851 13.5064 141.138 12.9225C142.424 12.3404 143.804 12.0494 145.279 12.0494C146.753 12.0494 148.113 12.3404 149.355 12.9225C150.597 13.5045 151.652 14.3227 152.52 15.3733L153.431 12.474L153.432 12.4777ZM152.436 23.092C152.436 22.2391 152.276 21.4502 151.96 20.7254C151.641 20.0005 151.207 19.3764 150.658 18.8492C150.109 18.3239 149.457 17.9047 148.707 17.5918C147.954 17.2788 147.144 17.1232 146.279 17.1232C145.413 17.1232 144.594 17.2806 143.828 17.5918C143.061 17.9047 142.404 18.3239 141.855 18.8492C141.305 19.3745 140.871 20.0005 140.553 20.7254C140.235 21.4502 140.076 22.2391 140.076 23.092C140.076 23.945 140.235 24.7412 140.553 25.4788C140.871 26.2183 141.303 26.8571 141.855 27.3971C142.404 27.937 143.061 28.3635 143.828 28.6765C144.594 28.9895 145.411 29.1451 146.279 29.1451C147.146 29.1451 147.954 28.9895 148.707 28.6765C149.457 28.3635 150.109 27.937 150.658 27.3971C151.207 26.8571 151.641 26.2183 151.96 25.4788C152.278 24.7394 152.436 23.945 152.436 23.092Z" fill="white"/>
<path d="M165.867 34.1055H160.251V1.70422H165.867V34.1055Z" fill="white"/>
<path d="M173.612 12.5197V25.135C173.612 26.4595 174.047 27.5038 174.915 28.268C175.785 29.0323 176.989 29.4125 178.527 29.4125C179.951 29.4125 181.128 29.0823 182.053 28.4183C182.978 27.7561 183.514 26.849 183.655 25.6971V12.5197H188.785V34.1203H184.596L183.783 31.8314C182.33 33.6455 180.179 34.5525 177.328 34.5525C174.478 34.5525 172.327 33.7902 170.789 32.2636C169.249 30.7369 168.48 28.563 168.48 25.7398V12.5197H173.61H173.612Z" fill="white"/>
<path d="M196.3 24.2325C196.586 25.7869 197.325 27.0334 198.515 27.9701C199.705 28.9069 201.218 29.3743 203.055 29.3743C205.437 29.3743 207.401 28.5248 208.951 26.8257L211.921 30.8861C210.457 32.1252 209.016 33.0396 207.595 33.6295C206.174 34.2194 204.603 34.5143 202.883 34.5143C201.163 34.5143 199.526 34.2342 198.062 33.6722C196.599 33.1101 195.337 32.3329 194.274 31.3387C193.212 30.3444 192.38 29.1647 191.778 27.7958C191.176 26.4287 190.875 24.9225 190.875 23.2809C190.875 21.7265 191.168 20.2648 191.756 18.8959C192.343 17.5288 193.147 16.3398 194.165 15.3326C195.184 14.3254 196.373 13.5259 197.737 12.9342C199.099 12.3443 200.542 12.0494 202.063 12.0494C203.584 12.0494 204.918 12.3239 206.237 12.8693C207.556 13.4165 208.711 14.1733 209.702 15.1378C210.692 16.1024 211.474 17.2691 212.046 18.638C212.619 20.007 212.907 21.5113 212.907 23.1529V24.2325H196.296H196.3ZM207.316 20.4299C206.828 19.2205 206.146 18.2912 205.272 17.6438C204.397 16.9964 203.358 16.6718 202.151 16.6718C200.945 16.6718 199.777 17.0168 198.816 17.7087C197.855 18.4006 197.144 19.3077 196.686 20.4299H207.316Z" fill="white"/>
<path d="M124.855 7.0282C129.478 5.78752 130.438 4.8527 131.717 0.358271C131.758 0.214851 131.891 0.116357 132.042 0.116357C132.193 0.116357 132.328 0.214851 132.367 0.358271C133.644 4.8527 134.606 5.78579 139.229 7.0282C139.377 7.06794 139.477 7.19754 139.477 7.34441C139.477 7.49129 139.375 7.62262 139.229 7.66063C134.606 8.90131 133.646 9.83613 132.367 14.3306C132.326 14.474 132.193 14.5725 132.042 14.5725C131.891 14.5725 131.756 14.474 131.717 14.3306C130.44 9.83613 129.478 8.90303 124.855 7.66063C124.707 7.62089 124.607 7.49129 124.607 7.34441C124.607 7.19754 124.709 7.06621 124.855 7.0282Z" fill="#61D8FE"/>
<path d="M136.387 6.10352e-05C136.528 6.26858e-05 136.667 0.027333 136.797 0.0802747C136.926 0.133218 137.044 0.210855 137.144 0.308676L137.35 0.511527L137.554 0.310102C137.567 0.297356 137.581 0.284956 137.594 0.272906C137.79 0.0978339 138.046 0.000179868 138.312 0.00017987C138.596 0.000188465 138.868 0.111183 139.069 0.308676C139.269 0.506173 139.382 0.773999 139.382 1.0533C139.382 2.08373 138.159 3.06798 137.35 3.49025L137.35 3.49013L137.348 3.49167C136.539 3.06941 135.316 2.08516 135.316 1.05472C135.316 0.775435 135.429 0.507588 135.629 0.310102C135.633 0.30668 135.636 0.303371 135.64 0.300001C135.737 0.206291 135.852 0.131631 135.978 0.0802747C136.108 0.0273358 136.247 6.10352e-05 136.387 6.10352e-05Z" fill="#61D8FE"/>
</svg>
