<svg width="93" height="158" viewBox="0 0 93 158" fill="none" xmlns="http://www.w3.org/2000/svg">
<mask id="path-1-inside-1_454_683" fill="white">
<path d="M59.4625 155.764C61.2366 157.726 64.2751 157.886 66.1413 156.012C78.0972 144.005 86.5081 128.888 90.3896 112.33C94.6361 94.2149 93.2594 75.2354 86.443 57.9226C79.6265 40.6097 67.6943 25.7862 52.2374 15.4285C38.1092 5.96123 21.6499 0.63622 4.71741 0.00330246C2.07433 -0.0954973 -0.0389864 2.09358 0.000597166 4.73821C0.0401808 7.38284 2.21786 9.48003 4.86029 9.59499C19.844 10.2469 34.3954 15.0024 46.9055 23.3854C60.7446 32.6589 71.4278 45.9308 77.5307 61.4315C83.6337 76.9322 84.8663 93.925 81.0643 110.144C77.6274 124.806 70.2239 138.205 59.7066 148.898C57.8519 150.783 57.6885 153.802 59.4625 155.764Z"/>
</mask>
<path d="M59.4625 155.764C61.2366 157.726 64.2751 157.886 66.1413 156.012C78.0972 144.005 86.5081 128.888 90.3896 112.33C94.6361 94.2149 93.2594 75.2354 86.443 57.9226C79.6265 40.6097 67.6943 25.7862 52.2374 15.4285C38.1092 5.96123 21.6499 0.63622 4.71741 0.00330246C2.07433 -0.0954973 -0.0389864 2.09358 0.000597166 4.73821C0.0401808 7.38284 2.21786 9.48003 4.86029 9.59499C19.844 10.2469 34.3954 15.0024 46.9055 23.3854C60.7446 32.6589 71.4278 45.9308 77.5307 61.4315C83.6337 76.9322 84.8663 93.925 81.0643 110.144C77.6274 124.806 70.2239 138.205 59.7066 148.898C57.8519 150.783 57.6885 153.802 59.4625 155.764Z" fill="#61D8FE" stroke="white" stroke-opacity="0.08" stroke-width="39.721" mask="url(#path-1-inside-1_454_683)"/>
</svg>
