<svg width="161" height="183" viewBox="0 0 161 183" fill="none" xmlns="http://www.w3.org/2000/svg">
<mask id="path-1-inside-1_454_687" fill="white">
<path d="M1.7681 145.799C-0.290229 147.46 -0.621499 150.485 1.14489 152.454C10.3507 162.713 21.7708 170.777 34.5645 176.018C48.8378 181.865 64.3575 184.01 79.6815 182.252C95.0056 180.494 109.637 174.891 122.215 165.964C134.794 157.036 144.911 145.074 151.628 131.189C158.345 117.304 161.443 101.946 160.634 86.5424C159.825 71.1391 155.135 56.1903 147.001 43.0849C138.867 29.9796 127.552 19.1431 114.107 11.5824C102.056 4.8054 88.6455 0.857433 74.8872 0.0087858C72.2473 -0.154058 70.0817 1.98317 70.0572 4.62798C70.0326 7.27279 72.1589 9.42215 74.7977 9.60113C86.9406 10.4247 98.769 13.9455 109.412 19.9309C121.449 26.7002 131.58 36.4024 138.863 48.136C146.146 59.8696 150.344 73.2537 151.069 87.0447C151.793 100.836 149.019 114.586 143.006 127.018C136.992 139.45 127.933 150.16 116.671 158.153C105.41 166.146 92.31 171.162 78.59 172.736C64.8699 174.31 50.9747 172.39 38.1954 167.155C26.896 162.526 16.7932 155.438 8.60981 146.429C6.83141 144.471 3.82644 144.138 1.7681 145.799Z"/>
</mask>
<path d="M1.7681 145.799C-0.290229 147.46 -0.621499 150.485 1.14489 152.454C10.3507 162.713 21.7708 170.777 34.5645 176.018C48.8378 181.865 64.3575 184.01 79.6815 182.252C95.0056 180.494 109.637 174.891 122.215 165.964C134.794 157.036 144.911 145.074 151.628 131.189C158.345 117.304 161.443 101.946 160.634 86.5424C159.825 71.1391 155.135 56.1903 147.001 43.0849C138.867 29.9796 127.552 19.1431 114.107 11.5824C102.056 4.8054 88.6455 0.857433 74.8872 0.0087858C72.2473 -0.154058 70.0817 1.98317 70.0572 4.62798C70.0326 7.27279 72.1589 9.42215 74.7977 9.60113C86.9406 10.4247 98.769 13.9455 109.412 19.9309C121.449 26.7002 131.58 36.4024 138.863 48.136C146.146 59.8696 150.344 73.2537 151.069 87.0447C151.793 100.836 149.019 114.586 143.006 127.018C136.992 139.45 127.933 150.16 116.671 158.153C105.41 166.146 92.31 171.162 78.59 172.736C64.8699 174.31 50.9747 172.39 38.1954 167.155C26.896 162.526 16.7932 155.438 8.60981 146.429C6.83141 144.471 3.82644 144.138 1.7681 145.799Z" fill="#61D8FE" stroke="white" stroke-opacity="0.08" stroke-width="39.721" mask="url(#path-1-inside-1_454_687)"/>
</svg>
