<svg width="22" height="12" viewBox="0 0 22 12" fill="none" xmlns="http://www.w3.org/2000/svg">
<mask id="path-1-inside-1_454_691" fill="white">
<path d="M21.092 7.44629C21.7617 4.88755 20.2323 2.25737 17.642 1.72242C13.4182 0.850123 9.13798 0.277511 4.83341 0.00891559C2.19361 -0.155803 0.026594 1.97987 0.000187611 4.62467C-0.0262078 7.26946 2.09837 9.42033 4.73711 9.60119C8.25578 9.84238 11.7552 10.3105 15.2136 11.0027C17.8071 11.5218 20.4223 10.005 21.092 7.44629Z"/>
</mask>
<path d="M21.092 7.44629C21.7617 4.88755 20.2323 2.25737 17.642 1.72242C13.4182 0.850123 9.13798 0.277511 4.83341 0.00891559C2.19361 -0.155803 0.026594 1.97987 0.000187611 4.62467C-0.0262078 7.26946 2.09837 9.42033 4.73711 9.60119C8.25578 9.84238 11.7552 10.3105 15.2136 11.0027C17.8071 11.5218 20.4223 10.005 21.092 7.44629Z" fill="#61D8FE" stroke="white" stroke-opacity="0.08" stroke-width="39.721" mask="url(#path-1-inside-1_454_691)"/>
</svg>
