<svg width="171" height="36" viewBox="0 0 171 36" fill="none" xmlns="http://www.w3.org/2000/svg">
<path d="M12.1891 26.9815V17.0351C12.1891 15.8054 11.8397 14.8589 11.1424 14.1986C10.4436 13.5382 9.46616 13.208 8.20715 13.208C6.94814 13.208 5.89552 13.5441 5.18494 14.2162C4.47435 14.8882 4.12053 15.7937 4.12053 16.9339V26.9815H0V1.34814H4.12053V11.5674C5.35742 10.2232 7.06166 9.55116 9.23617 9.55116C10.2667 9.55116 11.2161 9.71111 12.0859 10.0295C12.9557 10.3494 13.7046 10.8102 14.3341 11.4133C14.9636 12.0179 15.4501 12.7458 15.7936 13.6013C16.1371 14.4554 16.3081 15.418 16.3081 16.4892V26.9815H12.1876H12.1891Z" fill="white"/>
<path d="M22.5253 9.9043V19.8846C22.5253 20.9324 22.8747 21.7585 23.5735 22.3631C24.2708 22.9677 25.2379 23.2686 26.4748 23.2686C27.6188 23.2686 28.5638 23.0074 29.3069 22.482C30.0499 21.9581 30.4804 21.2405 30.5939 20.3292V9.9043H34.7144V26.993H31.3502L30.6985 25.1822C29.5309 26.6174 27.8031 27.3349 25.5136 27.3349C23.2241 27.3349 21.4963 26.7318 20.2609 25.5241C19.0254 24.3164 18.4062 22.5965 18.4062 20.363V9.9043H22.5268H22.5253Z" fill="white"/>
<path d="M61.4445 26.9629V17.018C61.4445 15.7885 61.0731 14.8421 60.3333 14.1819C59.5919 13.5216 58.5955 13.1915 57.3455 13.1915C56.0253 13.1915 55.0185 13.5216 54.3234 14.1819C53.6282 14.8421 53.2807 15.7533 53.2807 16.9153V26.9614H49.1115V17.0165C49.1115 15.787 48.746 14.8407 48.0166 14.1804C47.2872 13.5201 46.2848 13.19 45.0124 13.19C43.74 13.19 42.6899 13.5201 42.0067 14.1804C41.3235 14.8407 40.9819 15.7518 40.9819 16.9138V26.9599H36.8127V9.87409H40.1824L40.9461 11.378C42.1275 10.1485 43.7952 9.53223 45.9492 9.53223C47.3856 9.53223 48.6297 9.77725 49.6843 10.2673C50.7374 10.7574 51.5653 11.469 52.1679 12.4036C52.7929 11.469 53.6103 10.7574 54.6172 10.2673C55.6256 9.77725 56.8234 9.53223 58.2136 9.53223C59.3249 9.53223 60.3333 9.69802 61.2357 10.0281C62.1382 10.3583 62.9138 10.8263 63.5627 11.4294C64.2116 12.0338 64.7143 12.7616 65.0738 13.617C65.4318 14.4709 65.6122 15.4231 65.6122 16.4707V26.9614H61.4431L61.4445 26.9629Z" fill="white"/>
<path d="M84.9866 9.87415V26.9627H80.8789V24.9802C80.2161 25.7315 79.4416 26.3082 78.551 26.7059C77.6619 27.1036 76.6684 27.3047 75.5735 27.3047C74.4095 27.3047 73.3205 27.0713 72.305 26.6047C71.2894 26.138 70.4106 25.4997 69.6699 24.6911C68.9277 23.8825 68.3457 22.9316 67.9239 21.8369C67.5022 20.7436 67.2905 19.5594 67.2905 18.2827C67.2905 17.006 67.4963 15.8673 67.9063 14.796C68.3163 13.7248 68.8866 12.8032 69.6185 12.0269C70.3489 11.2521 71.216 10.6431 72.2197 10.1985C73.2235 9.75381 74.3184 9.53223 75.5059 9.53223C76.6243 9.53223 77.6339 9.7318 78.5348 10.131C79.4357 10.5301 80.2176 11.0936 80.8789 11.8229V9.87415H84.9866ZM80.8789 18.384C80.8789 17.7001 80.7599 17.0676 80.5189 16.4865C80.2793 15.9054 79.9428 15.405 79.5092 14.9824C79.0757 14.5612 78.573 14.2252 78.0028 13.9742C77.4326 13.7233 76.8051 13.5986 76.1202 13.5986C75.4353 13.5986 74.8372 13.7248 74.2552 13.9742C73.6732 14.2252 73.1706 14.5612 72.7488 14.9824C72.327 15.4035 71.9964 15.9054 71.7568 16.4865C71.5172 17.0676 71.3967 17.7001 71.3967 18.384C71.3967 19.0678 71.5172 19.7061 71.7568 20.2975C71.9964 20.8904 72.327 21.4025 72.7488 21.8354C73.1706 22.2683 73.6732 22.6102 74.2552 22.8612C74.8372 23.1121 75.4588 23.2368 76.1202 23.2368C76.7815 23.2368 77.4311 23.1121 78.0028 22.8612C78.573 22.6102 79.0757 22.2683 79.5092 21.8354C79.9428 21.4025 80.2793 20.8904 80.5189 20.2975C80.7584 19.7047 80.8789 19.0678 80.8789 18.384Z" fill="white"/>
<path d="M99.0145 26.9629V17.0163C99.0145 15.7866 98.6552 14.8401 97.9395 14.1797C97.2224 13.5194 96.2586 13.1892 95.0494 13.1892C93.7725 13.1892 92.7985 13.5194 92.1261 14.1797C91.4538 14.8401 91.1176 15.7514 91.1176 16.9136V26.9614H87.0847V9.87268H90.3774L91.0829 11.3768C91.6644 10.762 92.3368 10.2997 93.0987 9.99301C93.8605 9.68484 94.7666 9.53223 95.8199 9.53223C96.8732 9.53223 97.8746 9.69218 98.7605 10.0106C99.645 10.3305 100.407 10.7913 101.046 11.3945C101.685 11.999 102.177 12.7269 102.525 13.5825C102.871 14.4365 103.046 15.3992 103.046 16.4704V26.9629H99.013H99.0145Z" fill="white"/>
<path d="M123.231 9.87107H126.61V25.7214C126.61 28.7565 125.739 31.0893 123.997 32.7198C122.255 34.3503 119.793 35.1655 116.612 35.1655C115.15 35.1655 113.78 34.986 112.503 34.6254C111.226 34.2663 109.972 33.6929 108.742 32.9051L110.448 29.6673C112.468 31.0618 114.465 31.7583 116.439 31.7583C117.321 31.7583 118.129 31.6294 118.86 31.3702C119.591 31.111 120.224 30.7403 120.758 30.2567C121.292 29.773 121.705 29.1779 121.995 28.4698C122.285 27.7617 122.43 26.9696 122.43 26.0921V24.4051C121.709 25.2377 120.851 25.8894 119.853 26.3614C118.854 26.8335 117.75 27.0695 116.544 27.0695C115.337 27.0695 114.262 26.8451 113.252 26.3947C112.241 25.9458 111.365 25.3319 110.623 24.5572C109.88 23.781 109.293 22.86 108.864 21.7914C108.435 20.7242 108.22 19.5817 108.22 18.3682C108.22 17.1547 108.44 15.9731 108.882 14.8943C109.323 13.8155 109.922 12.883 110.675 12.0953C111.429 11.309 112.323 10.6849 113.357 10.2229C114.39 9.76247 115.498 9.53223 116.683 9.53223C117.867 9.53223 118.959 9.76247 119.956 10.2229C120.954 10.6834 121.802 11.3307 122.499 12.1619L123.23 9.86817L123.231 9.87107ZM122.431 18.2683C122.431 17.5935 122.303 16.9694 122.049 16.396C121.793 15.8225 121.444 15.3288 121.003 14.9117C120.562 14.4961 120.039 14.1645 119.436 13.9169C118.832 13.6693 118.181 13.5462 117.486 13.5462C116.79 13.5462 116.132 13.6707 115.518 13.9169C114.902 14.1645 114.374 14.4961 113.932 14.9117C113.491 15.3273 113.143 15.8225 112.887 16.396C112.631 16.9694 112.504 17.5935 112.504 18.2683C112.504 18.9431 112.631 19.573 112.887 20.1565C113.143 20.7416 113.49 21.2469 113.932 21.6741C114.374 22.1013 114.902 22.4387 115.518 22.6863C116.132 22.9339 116.789 23.057 117.486 23.057C118.183 23.057 118.832 22.9339 119.436 22.6863C120.039 22.4387 120.562 22.1013 121.003 21.6741C121.444 21.2469 121.793 20.7416 122.049 20.1565C122.304 19.5715 122.431 18.9431 122.431 18.2683Z" fill="white"/>
<path d="M133.219 26.9815H128.708V1.34814H133.219V26.9815Z" fill="white"/>
<path d="M139.439 9.9043V19.8846C139.439 20.9324 139.788 21.7585 140.485 22.3631C141.184 22.9677 142.151 23.2686 143.386 23.2686C144.53 23.2686 145.475 23.0074 146.218 22.482C146.961 21.9581 147.391 21.2405 147.505 20.3292V9.9043H151.625V26.993H148.261L147.608 25.1822C146.441 26.6174 144.713 27.3349 142.424 27.3349C140.134 27.3349 138.407 26.7318 137.171 25.5241C135.935 24.3164 135.317 22.5965 135.317 20.363V9.9043H139.437H139.439Z" fill="white"/>
<path d="M157.661 19.1705C157.891 20.4002 158.485 21.3864 159.44 22.1274C160.396 22.8685 161.612 23.2383 163.087 23.2383C165 23.2383 166.577 22.5662 167.822 21.222L170.207 24.4343C169.032 25.4146 167.874 26.138 166.733 26.6047C165.592 27.0713 164.33 27.3047 162.949 27.3047C161.567 27.3047 160.252 27.0831 159.077 26.6384C157.901 26.1938 156.888 25.5789 156.034 24.7924C155.181 24.0058 154.513 23.0725 154.029 21.9895C153.546 20.908 153.304 19.7164 153.304 18.4177C153.304 17.188 153.54 16.0316 154.012 14.9486C154.484 13.8671 155.129 12.9265 155.947 12.1296C156.765 11.3328 157.72 10.7003 158.816 10.2322C159.909 9.76555 161.068 9.53223 162.29 9.53223C163.511 9.53223 164.583 9.74941 165.642 10.1808C166.702 10.6137 167.629 11.2125 168.425 11.9756C169.22 12.7386 169.848 13.6617 170.308 14.7446C170.768 15.8276 171 17.0177 171 18.3165V19.1705H157.658H157.661ZM166.509 16.1622C166.117 15.2054 165.57 14.4702 164.868 13.9581C164.164 13.4459 163.33 13.1891 162.361 13.1891C161.392 13.1891 160.454 13.4621 159.682 14.0095C158.911 14.5568 158.339 15.2744 157.971 16.1622H166.509Z" fill="white"/>
<path d="M100.279 5.56009C103.993 4.57857 104.764 3.83901 105.79 0.283387C105.823 0.169924 105.93 0.0920039 106.052 0.0920039C106.173 0.0920039 106.281 0.169924 106.313 0.283387C107.338 3.83901 108.11 4.57721 111.824 5.56009C111.943 5.59154 112.023 5.69406 112.023 5.81026C112.023 5.92646 111.941 6.03035 111.824 6.06042C108.11 7.04195 107.339 7.78151 106.313 11.3371C106.28 11.4506 106.173 11.5285 106.052 11.5285C105.93 11.5285 105.822 11.4506 105.79 11.3371C104.765 7.78151 103.993 7.04331 100.279 6.06042C100.16 6.02898 100.08 5.92646 100.08 5.81026C100.08 5.69406 100.162 5.59017 100.279 5.56009Z" fill="#61D8FE"/>
<path d="M109.541 0C109.654 1.30583e-06 109.766 0.0215754 109.87 0.0634586C109.975 0.105343 110.069 0.166763 110.149 0.244151L110.315 0.404631L110.479 0.245279C110.489 0.235196 110.5 0.225386 110.511 0.215853C110.668 0.07735 110.874 9.40112e-05 111.088 9.40127e-05C111.316 0.000100812 111.534 0.0879107 111.695 0.244151C111.856 0.400395 111.947 0.612278 111.947 0.833235C111.947 1.64843 110.964 2.42709 110.315 2.76115L110.314 2.76106L110.313 2.76228C109.664 2.42822 108.681 1.64956 108.681 0.834363C108.681 0.613414 108.772 0.401515 108.933 0.245279C108.936 0.242572 108.938 0.239954 108.941 0.237288C109.019 0.163152 109.112 0.104088 109.213 0.0634586C109.317 0.0215776 109.429 0 109.541 0Z" fill="#61D8FE"/>
</svg>
